HIERARCHY
ROOT Hips
{
  OFFSET -35.4901 99.2528 17.4586
  CHANNELS 6 Xposition Yposition Zposition Zrotation Xrotation Yrotation
  JOINT LeftUpLeg
  {
    OFFSET 8.64259 1.95398 -2.38835
    CHANNELS 3 Zrotation Xrotation Yrotation
    JOINT LeftLeg
    {
      OFFSET 43.7702 0 0
      CHANNELS 3 Zrotation Xrotation Yrotation
      JOINT LeftFoot
      {
        OFFSET 40.6238 0 0
        CHANNELS 3 Zrotation Xrotation Yrotation
        JOINT LeftToeBase
        {
          OFFSET 12.7242 0 0
          CHANNELS 3 Zrotation Xrotation Yrotation
          End Site
          {
            OFFSET 0 0 0
          }
        }
      }
    }
  }
  JOINT RightUpLeg
  {
    OFFSET -8.2249 1.95398 -2.59336
    CHANNELS 3 Zrotation Xrotation Yrotation
    JOINT RightLeg
    {
      OFFSET 43.5653 0 0
      CHANNELS 3 Zrotation Xrotation Yrotation
      JOINT RightFoot
      {
        OFFSET 40.6238 0 0
        CHANNELS 3 Zrotation Xrotation Yrotation
        JOINT RightToeBase
        {
          OFFSET 12.7242 0 0
          CHANNELS 3 Zrotation Xrotation Yrotation
          End Site
          {
            OFFSET 0 0 0
          }
        }
      }
    }
  }
  JOINT Spine
  {
    OFFSET 0.165834 0.87714 6.61349
    CHANNELS 3 Zrotation Xrotation Yrotation
    JOINT Spine1
    {
      OFFSET 7.38963 1.71661e-005 0
      CHANNELS 3 Zrotation Xrotation Yrotation
      JOINT Spine2
      {
        OFFSET 11.9445 1.14441e-005 0
        CHANNELS 3 Zrotation Xrotation Yrotation
        JOINT Spine3
        {
          OFFSET 14.7254 4.19617e-005 0
          CHANNELS 3 Zrotation Xrotation Yrotation
          JOINT Spine4
          {
            OFFSET 10.9679 0 0
            CHANNELS 3 Zrotation Xrotation Yrotation
            JOINT RightShoulder
            {
              OFFSET 2.46616 -1.6653 3.69651
              CHANNELS 3 Zrotation Xrotation Yrotation
              JOINT RightArm
              {
                OFFSET 13.0012 0 0
                CHANNELS 3 Zrotation Xrotation Yrotation
                JOINT RightForeArm
                {
                  OFFSET 28.7848 1.52588e-005 0
                  CHANNELS 3 Zrotation Xrotation Yrotation
                  JOINT RightHand
                  {
                    OFFSET 26.5688 1.52588e-005 0
                    CHANNELS 3 Zrotation Xrotation Yrotation
                    End Site
                    {
                      OFFSET 0 0 0
                    }
                  }
                }
              }
            }
            JOINT LeftShoulder
            {
              OFFSET 2.38034 -1.29275 -3.7523
              CHANNELS 3 Zrotation Xrotation Yrotation
              JOINT LeftArm
              {
                OFFSET 16.3182 6.10351e-005 0
                CHANNELS 3 Zrotation Xrotation Yrotation
                JOINT LeftForeArm
                {
                  OFFSET 27.0901 0 0
                  CHANNELS 3 Zrotation Xrotation Yrotation
                  JOINT LeftHand
                  {
                    OFFSET 24.5451 1.52588e-005 0
                    CHANNELS 3 Zrotation Xrotation Yrotation
                    End Site
                    {
                      OFFSET 0 0 0
                    }
                  }
                }
              }
            }
            JOINT Neck
            {
              OFFSET 5.0226 -0.0266342 0
              CHANNELS 3 Zrotation Xrotation Yrotation
              JOINT Head
              {
                OFFSET 6.69364 2.86102e-005 0
                CHANNELS 3 Zrotation Xrotation Yrotation
                End Site
                {
                  OFFSET 0 0 0
                }
              }
            }
          }
        }
      }
    }
  }
}
MOTION
Frames:	18
Frame Time:	0.0416667
110.616 26.7274 117.184 -24.1557 -13.7629 -99.6863 -123.277 60.5493 89.7458 -115.777 0.618238 4.88466 67.9848 2.49965 4.59684 5.20734 1.52786 -0.031532 136.479 18.6999 55.4474 -47.2317 -26.362 12.433 47.278 4.69745 5.73515 36.585 -1.76453 4.5631 -1.41703 8.9242 -87.4201 9.0359 -1.67505 5.22489 -2.64474 -1.44381 5.29328 -25.1227 -3.16644 4.48236 -5.11006 -3.16644 4.48235 92.8322 -12.7436 -108.189 35.7854 31.4038 -33.9003 -72.0654 20.4383 -109.233 -20.3832 -2.76074 1.98914 -87.138 -35.2605 80.1169 -7.60522 -29.3226 -42.6619 49.9298 -27.1004 -111.824 3.93101 0.311378 2.91926 47.2755 -2.86978 -6.0311 -8.79138 0.791006 -1.3443 
109.786 26.0706 116.778 -24.9728 -12.9828 -101.363 -126.978 57.7294 94.2616 -114.435 4.28422 4.14403 67.8049 2.65099 4.89235 4.40072 1.62239 -0.0687832 135.486 18.476 53.929 -47.9015 -16.0952 11.7684 49.4523 3.55853 4.75694 34.6035 -1.21176 2.83915 -1.51585 8.76881 -87.7199 9.35798 -1.99862 4.66591 -2.32007 -1.79154 4.7491 -24.8186 -3.30761 3.85132 -4.80588 -3.30761 3.85134 93.3347 -11.8164 -107.338 31.6682 20.105 -36.7381 -75.5415 21.7462 -103.417 -16.3548 -2.21192 0.937125 -85.5916 -24.2171 80.2824 -18.3291 -45.5235 -49.825 48.8319 -18.2827 -111.057 -0.795412 -0.0354331 0.689013 45.5846 0.747488 -0.147207 -7.43294 0.916317 -2.37639 
109.294 25.5645 116.278 -24.3118 -11.0594 -100.584 -125.249 58.3045 96.0576 -113.746 3.12064 3.52013 66.6241 2.35171 5.11723 4.78502 2.12027 -0.638916 136.993 17.7441 55.2575 -48.12 -14.7079 11.7166 51.0819 2.68483 4.49369 32.5924 -1.37825 3.5184 -1.45396 8.44171 -88.3465 10.0104 -2.14585 3.45849 -1.66369 -1.99164 3.54945 -24.1889 -3.08572 2.65432 -4.17626 -3.08572 2.65431 93.3602 -11.6184 -107.378 26.0662 12.9201 -40.1394 -74.5503 18.5703 -100.512 -16.9114 -2.05519 -0.570015 -83.1166 -7.72312 80.9968 -29.8162 -53.8633 -64.3014 49.7368 -5.03709 -104.96 -6.21845 -0.105065 -4.36456 42.3831 5.02897 4.03798 -5.91578 2.74838 -2.81345 
109.373 26.017 115.644 -19.0771 -7.80042 -97.8181 -117.385 62.8028 91.4411 -113.56 3.71144 2.84279 65.848 2.29912 5.3916 5.69004 1.38135 0.089653 140.362 20.5057 61.5519 -51.4335 -9.95665 11.6582 54.9199 0.960126 3.23526 32.2919 -1.73479 4.5861 -1.13733 7.82802 -89.0676 11.2328 -1.82976 2.03771 -0.438612 -1.73834 2.1162 -22.9773 -2.3575 1.3936 -2.96466 -2.35751 1.39358 93.5224 -11.6163 -106.927 20.4154 6.69555 -43.9624 -76.7987 18.2232 -96.7222 -14.2791 -1.78515 -1.0794 -81.6611 2.45509 81.5057 -33.7495 -53.3515 -73.9961 51.1489 1.79402 -89.7159 -12.7046 0.716011 -12.8774 42.4274 7.89609 7.44412 -6.34724 3.75693 -3.52017 
109.84 26.9749 115.037 -12.5978 -3.50336 -93.4154 -102.376 69.6499 80.0954 -113.784 0.373379 2.19023 65.1866 2.27749 3.72199 5.50152 1.91393 -0.48101 144.09 22.9232 71.0587 -54.1379 -2.35586 12.0798 65.2533 -3.12601 1.01501 30.7852 -1.8054 4.83373 -0.637121 7.18805 -89.7852 12.501 -1.16343 0.563478 0.830459 -1.1375 0.614162 -21.7087 -1.27898 0.187737 -1.69607 -1.27899 0.18771 93.383 -12.6989 -106.721 15.8692 2.02676 -47.1586 -80.1071 19.394 -93.2325 -8.89191 -1.41066 -2.67435 -80.702 7.36573 83.1986 -34.7803 -49.5745 -79.3814 53.0367 8.58521 -85.2076 -10.1104 0.848488 -18.1874 43.5308 9.774 8.95759 -7.62372 4.72928 -4.24806 
109.542 27.1976 115.304 -11.9243 -1.69981 -95.0471 -101.44 67.0117 80.8008 -112.835 -0.145169 0.986112 65.8774 2.65768 3.28467 4.64929 2.78424 -1.34928 144.017 24.6776 71.5581 -56.02 2.13452 11.7445 74.9287 -7.44292 0.386673 28.4324 -1.65254 4.46985 -0.609592 7.16727 -89.8138 12.5422 -1.12227 0.502089 0.871623 -1.09911 0.550985 -21.6673 -1.22129 0.141534 -1.65464 -1.22129 0.14155 92.7822 -14.0502 -107.604 11.4181 -0.25759 -49.2967 -81.9367 19.7713 -91.1171 -5.27316 -1.22629 -3.48403 -80.3447 9.25388 83.8091 -35.2302 -50.0587 -78.819 50.9429 9.19775 -83.998 -11.5088 0.807426 -15.5487 43.9328 10.3012 8.94436 -7.54548 5.17733 -3.88923 
108.893 26.7893 115.459 -11.4568 -0.297853 -96.1783 -101.806 64.7242 83.1141 -111.861 0.165971 -0.049038 66.2706 2.87893 3.14717 4.4964 1.31235 0.240556 143.831 25.1453 71.879 -56.0816 6.29778 12.3765 78.147 -8.85838 -0.0635944 27.1027 -1.64554 4.46815 -0.657768 7.19867 -89.8202 12.4796 -1.22131 0.499433 0.809139 -1.19813 0.552718 -21.7305 -1.31494 0.109244 -1.71789 -1.31494 0.109249 92.541 -14.9617 -107.745 8.34465 -2.90739 -51.4979 -84.7887 20.0153 -89.6894 -4.3112 -1.16757 -3.73308 -79.9207 9.91832 85.6694 -37.1289 -50.9574 -78.4504 49.2144 8.00303 -85.1716 -9.14231 0.482959 -14.0782 46.6847 10.4049 6.63688 -8.58868 6.22895 -2.46068 
107.841 25.8929 115.647 -10.9286 0.778235 -96.8493 -104.316 62.1568 87.5593 -110.496 2.00846 -1.20094 66.5838 2.99129 2.1631 8.8664 -1.3244 2.99988 143.909 24.4989 71.7742 -54.6581 9.09287 13.0193 83.0541 -10.8494 0.387296 24.759 -1.67499 4.62005 -0.827256 7.14579 -89.8866 12.5865 -1.58923 0.411867 0.916368 -1.56954 0.481441 -21.6266 -1.63952 -0.0849047 -1.6139 -1.63951 -0.0849245 91.8899 -15.3751 -109.192 6.0136 -5.28932 -53.3493 -90.4196 28.4641 -82.0585 7.00505 -1.24147 -7.93505 -79.6917 9.84228 86.7522 -43.0548 -51.0583 -77.4481 49.0993 5.46061 -90.9074 -8.46101 0.325558 -12.2946 48.3279 11.0165 5.34671 -9.01739 7.41528 -2.43938 
106.821 25.8168 116.103 -9.22424 2.4378 -97.4639 -109.254 58.6178 92.7038 -107.743 4.48821 -2.78058 67.4337 2.85531 -2.74497 17.16 -3.74442 6.01913 145.595 24.8719 72.8351 -53.0228 12.1787 12.6495 91.7441 -14.1685 2.31316 21.6964 -1.20376 3.61779 -0.849626 7.0019 -89.9763 12.8733 -1.67556 0.249133 1.20341 -1.66297 0.32265 -21.3403 -1.67295 -0.266096 -1.32767 -1.67295 -0.266107 90.0815 -17.7829 -112.305 -0.205668 -8.33517 -52.826 -87.0486 23.9378 -84.9537 -2.05246 -1.00353 -2.20314 -79.7051 9.24481 86.9651 -41.1163 -55.0526 -69.077 47.0979 1.51276 -96.7331 -8.15792 0.231366 -10.7335 49.6563 11.9793 5.26415 -9.84226 8.3698 -3.38007 
105.187 26.9196 117.408 -7.3379 4.06535 -98.9349 -117.474 54.0944 97.8363 -101.307 16.0374 -5.64343 65.8777 2.38669 -4.80238 21.155 -5.77362 9.08739 147.645 29.1092 73.0095 -52.6915 12.4841 11.7141 84.7241 -11.2462 1.27685 21.2372 -1.00637 3.14224 -0.719507 6.90853 -90.0235 13.0584 -1.43954 0.130352 1.3882 -1.43242 0.193578 -21.1532 -1.41215 -0.30841 -1.14052 -1.41216 -0.308416 88.487 -20.8468 -114.249 -5.31983 -11.2779 -52.0763 -86.3088 26.7396 -84.1048 -2.71505 -1.02181 -2.33131 -80.3011 8.53473 84.4009 -36.7332 -60.4547 -59.6291 43.6582 -0.695623 -101.304 -4.44839 -0.0331197 -7.7995 50.8785 12.4493 5.02461 -10.5906 8.79373 -2.2216 
103.033 28.7869 119.931 -5.2311 5.15357 -100.464 -122.082 49.7469 97.312 -93.4399 22.1307 -8.92338 63.7177 1.77897 -6.10604 22.5961 -6.98709 11.0254 145.837 40.995 70.9139 -59.6284 8.62044 11.987 65.3274 -2.33157 1.90286 23.6464 -0.167077 1.09002 -0.318161 7.00445 -90.331 12.8639 -0.790405 -0.569523 1.19309 -0.81471 -0.534198 -21.3421 -0.582702 -0.780729 -1.3294 -0.582707 -0.780754 90.9771 -19.2942 -109.322 -4.90583 -10.9665 -54.2973 -83.5005 24.5976 -90.4189 -1.55172 -0.929861 -1.57504 -80.7704 6.9302 83.2683 -48.1876 -63.9401 -63.6557 43.3734 -3.6092 -108.077 -5.21386 0.00445677 -8.22766 53.3802 13.848 7.61608 -12.2012 8.31517 -1.60869 
101.018 30.556 122.299 -3.38491 6.7029 -100.123 -125.642 47.7291 97.0583 -86.9321 24.1341 -11.9215 62.3811 1.39806 -7.75323 24.3485 -8.17183 13.1153 142.735 55.3768 71.3182 -72.415 -1.01695 9.34165 61.0296 -0.576159 1.24958 19.8222 -0.455947 2.08055 -0.0177947 7.13591 -90.8354 12.5975 -0.433725 -1.61778 0.925649 -0.50449 -1.59714 -21.6016 0.0724707 -1.6733 -1.58896 0.0724719 -1.67333 91.7316 -17.9348 -108.241 -6.01314 -9.41417 -54.4 -80.9338 19.9195 -96.1533 -7.05209 -1.20396 1.03182 -81.2348 2.95392 83.1792 -52.9925 -66.4239 -66.0579 40.2895 -4.43378 -111.905 -3.67477 -0.0747855 -5.46992 54.2606 15.7677 11.0746 -12.1934 7.98295 -2.69671 
99.0565 31.3232 123.92 -3.72501 7.82518 -98.3497 -130.532 46.039 100.413 -80.6871 27.2748 -13.7258 60.9257 1.02388 -9.30448 26.0772 -8.30625 13.6208 140.625 67.1976 73.3507 -88.5239 -7.17295 4.85112 66.132 -2.87438 -0.369806 18.9381 -0.823836 2.93015 -0.198262 7.35006 -91.0695 12.1612 -0.90009 -2.03467 0.489094 -0.988773 -1.9931 -22.0337 -0.247156 -2.21104 -2.02101 -0.247145 -2.21104 87.5133 -23.0985 -115.117 -13.1484 -10.3507 -51.1833 -82.3253 19.0917 -92.2889 -9.50506 -1.29216 -3.09292 -81.2795 -2.76761 85.1964 -37.6463 -69.6973 -56.545 34.3596 -4.01421 -113.716 -0.148755 -0.107167 -5.22718 56.1954 17.3079 10.8866 -13.2751 9.65945 -5.63489 
97.127 31.0182 124.378 -6.20988 8.81995 -95.1265 -133.665 44.3616 105.71 -77.7448 27.598 -14.0016 60.3377 0.969299 -9.50604 25.9256 -8.17214 13.3688 140.501 75.9379 74.65 -102.709 -6.51174 1.47104 63.6095 -1.91444 -0.687856 16.4759 -1.69735 4.82143 -0.900408 6.91548 -92.3172 12.9573 -2.89953 -4.29271 1.28298 -3.08549 -4.16118 -21.204 -1.47718 -4.96412 -1.19132 -1.47718 -4.96411 77.4709 -15.6633 -142.522 -11.896 -22.3959 -28.4221 -85.5556 23.5673 -88.3021 -9.30621 -1.34903 -4.11055 -82.0743 -38.0245 90.7352 17.1747 -63.294 -30.2737 32.0204 -7.49702 -110.648 0.504419 0.0189564 0.00530634 23.9267 25.1233 58.1821 8.43114 0.700441 -40.248 
95.1096 30.3227 123.936 -9.94836 8.06531 -92.1152 -135.659 42.0632 109.874 -78.2656 21.5407 -13.4199 60.5702 1.04087 -9.32399 27.0601 -10.1718 16.8712 142.576 79.367 72.8914 -111.134 -3.02948 -0.117256 62.0444 -1.49273 -2.05568 13.3208 -2.01428 5.47053 -0.459528 7.3017 -92.6422 12.1897 -2.16132 -5.02083 0.511144 -2.37994 -4.9212 -21.947 -0.555072 -5.437 -1.93432 -0.555096 -5.43699 74.4665 -22.307 -141.9 -14.3242 -25.2015 -21.6545 -94.4957 34.4002 -79.5098 5.44773 -1.22696 -9.20935 -85.4106 -34.1247 82.8598 4.99424 -57.6164 -35.3676 34.6747 -10.9156 -112.737 -1.12709 -0.0551987 -1.11308 23.3342 21.9601 53.1988 9.41363 -1.3865 -32.605 
93.1447 29.8593 123.846 -11.6322 8.35488 -91.3025 -135.586 39.1176 110.914 -77.3007 15.6909 -14.4598 61.2545 1.29187 -7.61721 25.2003 -8.17041 13.2824 136.806 74.7726 77.8451 -109.442 -0.994937 0.32459 68.5259 -4.6817 -4.37115 11.944 -2.93983 7.1503 0.702974 7.92788 -92.316 11.0057 0.326379 -4.63581 -0.673674 0.122267 -4.64566 -23.1487 1.70323 -4.32455 -3.13603 1.70323 -4.32453 82.1523 -27.8443 -123.192 -15.7263 -26.1066 -28.876 -93.5349 39.7591 -80.1418 -1.20574 -1.03355 -5.67587 -83.6525 -12.6988 81.1623 -31.5533 -47.6982 -55.7453 44.5411 -15.241 -113.207 -2.15077 -0.0834537 -0.555291 46.5411 16.2815 18.7698 -7.8535 5.33221 -5.97061 
91.8175 29.7097 124.423 -12.4246 7.60582 -92.3348 -135.553 35.8822 109.041 -77.3539 8.33996 -15.8523 61.5584 1.2451 -6.95171 25.4387 -8.55302 13.9039 132.555 71.2929 79.738 -106.43 4.23865 1.11482 72.9533 -6.78584 -4.82209 13.8135 -2.66793 6.7036 1.05078 7.83149 -91.9834 11.2153 1.16909 -4.06345 -0.461583 0.989271 -4.11089 -22.9604 2.33556 -3.52537 -2.9477 2.33556 -3.52539 80.8354 -29.3348 -124.76 -11.1804 -31.0592 -18.8556 -106.536 37.8085 -66.537 -19.5635 -2.30801 0.775645 -82.7521 -12.4418 83.7683 -29.3617 -32.5367 -64.2141 55.6581 -17.4245 -105.801 -2.69244 -0.108509 2.06202 45.117 11.5784 12.029 -7.44005 4.43351 -0.632946 
90.4887 28.2973 124.462 -15.0762 6.27994 -91.0231 -135.783 33.8255 111.618 -77.4228 5.48248 -15.8312 60.7406 0.868072 -5.76435 27.1011 -8.26517 13.7452 137.863 67.0852 71.0602 -105.345 1.18854 1.2871 71.795 -6.10033 -3.82127 14.5646 -3.11238 7.57886 0.97819 7.7349 -91.9061 11.4068 1.05698 -3.90296 -0.269721 0.884311 -3.94561 -22.7705 2.18048 -3.40584 -2.75785 2.18047 -3.40585 82.8841 -27.4449 -122.017 -6.08349 -12.215 -11.6639 -70.7377 32.6595 -101.874 -24.3824 -1.27481 -5.28805 -83.5537 -11.4724 81.3167 -23.8806 -25.7203 -63.3562 60.9037 -17.369 -101.613 -3.02148 -0.131313 2.85073 43.0593 9.50706 10.0629 -7.18698 3.71799 -0.0926564 
